# xmcd
#
# Track frame offsets:
#	192
#	18952
#	35815
#	48782
#	61212
#	78412
#	91287
#	102540
#	118855
#	134282
#	151197
#	164422
#	177815
#	196720
#	210485
#	225587
#	239030
#	256500
#	273155
#	286082
#
# Disc length: 4008
#
# Revision: 3
# Processed by: cddbd v1.5.1PL0 Copyright (c) Steve Scherf et al.
# Submitted via: CDex 1.50
# Normalized: r2:DSETVAR1
#
DISCID=040fa614
DTITLE=Various Artist - Motown Heartbreakers
DYEAR=1900
DGENRE=Easy Listening
TTITLE0=Lionel Ritchie - Hello
TTITLE1=Diana Ross - I'm Still Waiting
TTITLE2=Smoky Robinson and the Miracles - The Tracks Of My Tears
TTITLE3=Four Tops - Walk Away Renee
TTITLE4=Temptations - Just My Imagination (Running Away With Me)
TTITLE5=Isley Brothers - This Old Heart Of Mine (Is Weak For You)
TTITLE6=Diana Ross and the Supremes - Where Did Our Love Go
TTITLE7=Thelma Houston - Don't Leave Me This Way
TTITLE8=Diana Ross - Touch Me In The Morning
TTITLE9=Commodores - Still
TTITLE10=Jimmy Ruffin - What Becomes Of The Broken Hearted
TTITLE11=Smoky Robinson and the Miracles - The Tears Of A Clown
TTITLE12=Michael Jackson - Ain't No Sunshine
TTITLE13=Stevie Wonder - Yester-Me, Yester-You, Yesterday
TTITLE14=Diana Ross - Remember Me
TTITLE15=Jimmy Ruffin - Farewell Is A Lonely Sound
TTITLE16=Charlene - I've Never Been To Me
TTITLE17=Michael Jackson - Farewell My Summer Love
TTITLE18=Diana Ross and the Supremes - Stop! In The Name Of Love
TTITLE19=Marvin Gaye - I Heard It Through the Grapevine
EXTD=
EXTT0=Lionel Ritchie
EXTT1=Diana Ross
EXTT2=Smokey Robinson And The Miracles
EXTT3=Four Tops
EXTT4=Temptations
EXTT5=Isley Brothers
EXTT6=Diana Ross And The Supremes
EXTT7=Thelma Houston
EXTT8=Diana Ross
EXTT9=Commodores
EXTT10=Jimmy Ruffin
EXTT11=Smokey Robinson And The Miracles
EXTT12=Michael Jackson
EXTT13=Stevie Wonder
EXTT14=Diana Ross
EXTT15=Jimmy Ruffin
EXTT16=Charlene
EXTT17=Michael Jackson
EXTT18=Diana Ross And The Supremes
EXTT19=Marvin Gaye
PLAYORDER=
